<svg xmlns="http://www.w3.org/2000/svg" viewBox="0 0 279.39 89.48"><defs><style>.cls-1{fill:#c3e5f0;}.cls-2{fill:#9bd0e0;}.cls-3{fill:#37bbd4;}.cls-4{fill:#fee5c2;}.cls-5{fill:#fcd1a4;}.cls-6{fill:#f9ba86;}.cls-7{fill:#79cadc;}.cls-8{fill:#fff;}</style></defs><g id="Capa_2" data-name="Capa 2"><g id="Capa_1-2" data-name="Capa 1"><path class="cls-1" d="M26.92,34.72c-1.79-1.79-3.6-3.57-5.37-5.38a1,1,0,0,0-1.26-.28A14.72,14.72,0,0,1,.17,17.47c0-.12,0-.23-.17-.28V13.87a12.52,12.52,0,0,0,.17-1.72,3.72,3.72,0,0,1,.49-1.39A1.49,1.49,0,0,1,3,10.32a6.79,6.79,0,0,1,.84.77c2.33,2.33,4.63,4.69,7,7a5.43,5.43,0,0,0,5.07,1.47c4.32-.86,4.62-6,2.78-8.19a67.86,67.86,0,0,0-5.88-6c-.53-.5-1.08-1-1.58-1.51-.24-.25-.51-.5-.46-.9.22-.42.63-.4,1-.4,7,0,13.38,4.56,14.63,11.58a14,14,0,0,1-.66,7.5,2.22,2.22,0,0,0,.67,2.77c1.4,1.27,2.7,2.66,4,4a2.37,2.37,0,0,1,.84,1.3,1.09,1.09,0,0,1-.4.83,28,28,0,0,0-3.65,4A.4.4,0,0,1,26.92,34.72Z"/><path class="cls-2" d="M89.62,75.83c-.36.22,0,.68-.33.92-.37-.17-.43-.54-.57-.85a23.55,23.55,0,0,0-5.32-7.73,13.63,13.63,0,0,0-11.08-3.69,28.94,28.94,0,0,0-4.44.93,2,2,0,0,1-2.21-.63c-3.34-3.74-6.92-7.25-10.3-11-1.25-1.37-2.58-2.69-3.87-4-2.7-2.81-5.37-5.67-8.08-8.47a2,2,0,0,1-.52-.7c-.1-.24,0-.39.25-.42a2.35,2.35,0,0,1,1,.43,13.32,13.32,0,0,0,4.39,1.68,6.89,6.89,0,0,0,3.94-.37c1-.39,1.2-.19,1,.81a5.2,5.2,0,0,0,.64,3.87,4.57,4.57,0,0,0,5.41,1.67,1.62,1.62,0,0,1,.92-.2c.46.41,0,.69-.2.92a4.22,4.22,0,0,0-.83,4.52A3.8,3.8,0,0,0,63,55.77c.42,0,.87-.1,1.23.24,1.37,1.39,2.75,2.77,4.1,4.18.36.38.66.18,1,.05A14.57,14.57,0,0,1,84,62.32a13.9,13.9,0,0,1,5.48,9.44,1.49,1.49,0,0,0,.17.39Z"/><path class="cls-3" d="M32.48,77.26c1.28,2,1.15,3.19-.49,4.84-1.88,1.87-3.76,3.73-5.62,5.62A6.78,6.78,0,0,1,24,89.48H22.75a6.11,6.11,0,0,1-2.36-1.67c-1.32-1.37-2.68-2.72-4-4.08.28-.35.64-.2,1-.15a3,3,0,0,0,2.69-1q3.24-3.24,6.49-6.49a2.88,2.88,0,0,0,.89-2.94c-.08-.27-.16-.58.18-.77a.83.83,0,0,1,.77.41c1.06,1.27,2.31,2.36,3.45,3.55A2.16,2.16,0,0,1,32.48,77.26Z"/><path class="cls-4" d="M28.21,73l-.57-.52a3.43,3.43,0,0,1-1.42-1Q20.1,65.41,14,59.29c-.28-.27-.68-.5-.56-1,2.51-2.56,5-5.1,7.52-7.69a21.67,21.67,0,0,0,3.48-4.79,11.3,11.3,0,0,0,1.48-6.1,10.12,10.12,0,0,1,1-5c.74-1.65,2.16-2.7,3.35-4l.9-1a.93.93,0,0,1,.36-.66c.77-.78,1.54-1.55,2.32-2.32a1,1,0,0,1,.66-.38l2.18-2.12a2.66,2.66,0,0,1,4,0l1.13,1.09a2.1,2.1,0,0,1,.91.65l3.77,3.76c.78.77,1.52,1.59,2.36,2.29a44.82,44.82,0,0,1,3.76,3.66c.53.56.45,1-.21,1.45a5.7,5.7,0,0,1-2.88.91,11.59,11.59,0,0,1-8.13-2.85,20.59,20.59,0,0,1-2.13-1.94c-.45-.47-.85-.38-1.26.07a2.8,2.8,0,0,0-.36,3.15c2,2.68,1.56,5.41.2,8.15a9.52,9.52,0,0,1-1.81,2.56,1.62,1.62,0,0,0-.41.56,1.06,1.06,0,0,0,.18,1.36,1,1,0,0,0,1.42-.1,9.21,9.21,0,0,0,1.13-1.21,2.13,2.13,0,0,1,.89-.82c.43,0,.66.33.92.59,3.88,3.86,7.74,7.75,11.62,11.61.19.19.49.35.36.72-2.25,1.47-4.63,2.46-7.4,2-.32-.06-.64-.08-1-.17-2.32-.65-4.14.18-5.75,1.82-2.89,2.94-5.81,5.83-8.72,8.73C29,72.65,28.77,73.11,28.21,73Z"/><path class="cls-5" d="M39.36,47.12a25.83,25.83,0,0,1-1.81,2.11,1.5,1.5,0,0,1-2,.21,1.55,1.55,0,0,1,0-2.07,10.71,10.71,0,0,0,2.1-2.87c1.09-2.18,1.55-4.44.42-6.77a4.64,4.64,0,0,0-.44-.65A3.09,3.09,0,0,1,38,33c.5-.51.9-.53,1.39,0A18.91,18.91,0,0,0,43,36a10.25,10.25,0,0,0,7.72,1.64.86.86,0,0,0,.17,0c2.15-.59,2.28-1,.75-2.55-1-1-2-1.9-3-2.85C49.66,31,50.89,30,52,28.81c.51-.53,1-1,1.55-1.55a1.61,1.61,0,0,1,1.05-.56A4.32,4.32,0,0,1,58.12,26a1.2,1.2,0,0,1,.69.84,5.22,5.22,0,0,1-.63,4.75,41.14,41.14,0,0,1-4,4.18c-.82.86-.84.86,0,1.76a4.37,4.37,0,0,1,.53.69c.63,1.16.65.9,1.43.13s1.59-1.63,2.42-2.4a2.93,2.93,0,0,1,1.76-1,3.18,3.18,0,0,1,2-.71c1.5-.16,1.74,0,2,1.43A5,5,0,0,1,63,40.25c-1.7,1.81-3.46,3.56-5.26,5.26a4.28,4.28,0,0,1-3.84,1.28,5.18,5.18,0,0,1-.52-4.88,17.69,17.69,0,0,1-1.84.64c-2.82.61-5.31-.35-7.69-1.74L43,40.3c-.5,0-.81-.4-1.28-.69a12.07,12.07,0,0,1-1.61,6.61C39.94,46.57,39.8,47,39.36,47.12Z"/><path class="cls-2" d="M34.51,26.45a46,46,0,0,1-3.34,3.36,4.72,4.72,0,0,0-1-1.22c-1.33-1.31-2.58-2.7-4-3.93a2.51,2.51,0,0,1-.78-3.19,13.27,13.27,0,0,0,.25-8.9C24,7.42,20.26,4.42,15,3.2a11.87,11.87,0,0,0-3.36-.36c-.28,0-.59-.07-.82.18-1-1.08-.86-1.92.52-2.46a9,9,0,0,1,3-.56h2.34A14.72,14.72,0,0,1,30,11.58a15.08,15.08,0,0,1-.77,8.69.87.87,0,0,0,.27,1.12C31.14,23.07,32.82,24.76,34.51,26.45Z"/><path class="cls-6" d="M53.89,46.79c.59-.37,1.3-.15,1.93-.42a5.62,5.62,0,0,0,1.83-1.15c1.68-1.69,3.39-3.36,5.05-5.06A5,5,0,0,0,64,35.35a1.4,1.4,0,0,0-1.74-1.21,4.78,4.78,0,0,1,5.46,3.65,5.12,5.12,0,0,1-.54,3.6c-.08.15-.34.26-.18.5s-.18.47-.36.64c-1.54,1.53-3,3.08-4.61,4.6a3,3,0,0,1-1.65,1A4.81,4.81,0,0,1,53.89,46.79Z"/><path class="cls-6" d="M64.19,56a4.61,4.61,0,0,1-4.45-1.38,2,2,0,0,1-.61-1c.26-.31.63-.26,1-.26a3.58,3.58,0,0,0,2.64-1.15C64.8,50.09,66.86,48,69,46a3.83,3.83,0,0,0,1.24-4.24.65.65,0,0,1,0-.51A3.86,3.86,0,0,1,73.48,44a4,4,0,0,1-.85,4.3c-2.22,2.28-4.49,4.51-6.74,6.75A5.63,5.63,0,0,1,64.19,56Z"/><path class="cls-5" d="M70.2,41.21a3.61,3.61,0,0,1-.53,4.41q-3.53,3.57-7.1,7.1c-1,1-2.2.93-3.44.87a4.24,4.24,0,0,1,.73-4.65c.21-.23.6-.35.54-.77a74.64,74.64,0,0,0,5.54-5.28c.35-.34.72-.67,1.08-1A4.13,4.13,0,0,1,70.2,41.21Z"/><path class="cls-5" d="M46.38,30c-1.57-1.46-3.11-3-4.54-4.56l4.95-4.9A4.85,4.85,0,0,1,51,19c.63.12.88.61,1.09,1.14a4.66,4.66,0,0,1-.63,4.8A38.17,38.17,0,0,1,46.38,30Z"/><path class="cls-6" d="M60.32,34.85a33.69,33.69,0,0,0-4.59,4.26c-.42.4-.61.51-.87-.15a4.74,4.74,0,0,0-1.23-1.67c-.48-.44-.58-.84,0-1.41a42.64,42.64,0,0,0,4.19-4.31A4.91,4.91,0,0,0,58.12,26,4.77,4.77,0,0,1,62.22,31a5.24,5.24,0,0,1-1.48,3.25A6.42,6.42,0,0,0,60.32,34.85Z"/><path class="cls-6" d="M46.38,30c0-.4.34-.59.58-.83,1.31-1.32,2.64-2.61,3.93-3.95A4.62,4.62,0,0,0,51,19a4.85,4.85,0,0,1,3.88,6.93c-.11.24-.44.45-.24.8-1.81,1.55-3.39,3.32-5.1,5-.25.24-.44.56-.84.58A23.27,23.27,0,0,1,46.38,30Z"/><path class="cls-7" d="M13.44,58.29c.89.91,1.78,1.84,2.69,2.75L26.4,71.3l1.24,1.21c-.17.16-.08.32,0,.48a2.94,2.94,0,0,1-.88,3.31C24.86,78.2,22.9,80,21.1,82c-1.33,1.45-2.74,2.3-4.73,1.74C11.6,79,6.82,74.23,2.08,69.46a2.94,2.94,0,0,1,.07-4.3C4.26,63,6.39,60.92,8.52,58.79,10.24,57.08,11.45,57,13.44,58.29Z"/><path class="cls-1" d="M39.36,47.12a15.11,15.11,0,0,0,2-5.42,10.52,10.52,0,0,0-.06-2.84L43,40.3c-.11.18,0,.26.14.36l3.42,3.61c3,3.08,6,6.14,8.89,9.26,2.21,2.36,4.42,4.71,6.68,7,1.3,1.33,2.52,2.73,3.77,4.11a1.56,1.56,0,0,0,1.79.51A21.62,21.62,0,0,1,74.4,64.1a13.89,13.89,0,0,1,9.13,3.81,22.47,22.47,0,0,1,5.76,8.84c-.15.92-.26,2-1.23,2.34s-1.61-.57-2.24-1.2c-2.3-2.31-4.58-4.65-6.92-6.92a5.82,5.82,0,0,0-7.38-.54c-2.38,1.66-2.66,5.8-.43,8.16s4.52,4.54,6.79,6.8a7.24,7.24,0,0,1,1.24,1.35,1.13,1.13,0,0,1-.48,1.81,8.7,8.7,0,0,1-3.37.78H73.15A14.72,14.72,0,0,1,59.37,74.08,13.65,13.65,0,0,1,60.5,69a.74.74,0,0,0-.18-1c-1.36-1.31-2.7-2.66-4-4a2.38,2.38,0,0,1-1-.71l-2.65-2.65a1.27,1.27,0,0,1-.51-.78Z"/><path class="cls-5" d="M52.15,59.9C53.58,61.23,55,62.59,56.28,64c-2,1.2-4.1,2.19-6.54,2a21.56,21.56,0,0,1-2.66-.38A4.5,4.5,0,0,0,42.87,67c-3.56,3.32-6.93,6.84-10.39,10.26A46.07,46.07,0,0,1,28.21,73l9.6-9.55a11.5,11.5,0,0,1,2-1.58,4.72,4.72,0,0,1,3.88-.41,10.06,10.06,0,0,0,7.77-1.3A5,5,0,0,1,52.15,59.9Z"/><path class="cls-8" d="M99.55,61.89V18H115.3q7.22,0,11.13,2.78a9,9,0,0,1,3.9,7.85,9.63,9.63,0,0,1-2.1,6.17,11,11,0,0,1-5.4,3.72v.13A10.54,10.54,0,0,1,129.61,42a9.83,9.83,0,0,1,2.53,6.84,11.67,11.67,0,0,1-4.32,9.54q-4.32,3.54-11.67,3.54Zm9.56-36.81V36h4.44a7.48,7.48,0,0,0,4.93-1.5,5.1,5.1,0,0,0,1.81-4.16,4.58,4.58,0,0,0-1.82-4,9.46,9.46,0,0,0-5.53-1.32Zm0,18.13V54.79h5.45a8.35,8.35,0,0,0,5.51-1.64,5.49,5.49,0,0,0,2-4.46,4.74,4.74,0,0,0-2-4,9.08,9.08,0,0,0-5.51-1.45Z"/><path class="cls-8" d="M143.9,25.45a5.55,5.55,0,0,1-4-1.49,4.91,4.91,0,0,1-1.54-3.69,4.88,4.88,0,0,1,1.54-3.74,6.31,6.31,0,0,1,8,0,4.88,4.88,0,0,1,1.54,3.74A4.88,4.88,0,0,1,147.9,24,5.61,5.61,0,0,1,143.9,25.45Zm4.59,36.44h-9.34V29.76h9.34Z"/><path class="cls-8" d="M173,62.69q-7.92,0-12.49-4.54c-3-3-4.56-7.08-4.53-12.18q0-8,4.73-12.5T173.45,29q7.91,0,12.41,4.49t4.5,11.95q0,7.94-4.67,12.61T173,62.69Zm.34-7.23A6.56,6.56,0,0,0,178.9,53q1.88-2.49,1.87-7.38c0-3.11-.62-5.45-1.88-7a6.79,6.79,0,0,0-5.65-2.37,6.94,6.94,0,0,0-5.73,2.54q-2.06,2.53-2,7.1,0,4.78,2,7.2A7.12,7.12,0,0,0,173.3,55.46Z"/><path class="cls-8" d="M223.43,25.78H207.85V36.87h14.33v7.78H207.85V61.89h-9.56V18h25.14Z"/><path class="cls-8" d="M235.19,25.45a5.52,5.52,0,0,1-4-1.49,4.91,4.91,0,0,1-1.55-3.69,4.89,4.89,0,0,1,1.55-3.74,6.3,6.3,0,0,1,8,0,4.89,4.89,0,0,1,1.55,3.74A4.89,4.89,0,0,1,239.19,24,5.6,5.6,0,0,1,235.19,25.45Zm4.6,36.44h-9.34V29.76h9.34Z"/><path class="cls-8" d="M279.39,29.76,268.76,45.41,279.3,61.89H268.52L263.68,53q-.29-.55-.63-1.26a17.15,17.15,0,0,1-.72-1.62h-.15c-.17.39-.35.82-.56,1.29a15.16,15.16,0,0,1-.76,1.5L256,61.89H245.24l10.87-16L245.88,29.76h10.84L261.47,39c.31.6.57,1.13.78,1.61a12.76,12.76,0,0,1,.54,1.36h.12a14,14,0,0,1,.63-1.5q.34-.73.75-1.53l4.87-9.16Z"/></g></g></svg>