<svg xmlns="http://www.w3.org/2000/svg" viewBox="0 0 178.6 178.33"><defs><style>.cls-1{fill:#c3e5f0;}.cls-2{fill:#9bd0e0;}.cls-3{fill:#37bbd4;}.cls-4{fill:#fee5c2;}.cls-5{fill:#fcd1a4;}.cls-6{fill:#f9ba86;}.cls-7{fill:#79cadc;}</style></defs><g id="Capa_2" data-name="Capa 2"><g id="Capa_1-2" data-name="Capa 1"><path class="cls-1" d="M53.65,69.19c-3.57-3.56-7.18-7.1-10.71-10.72a1.94,1.94,0,0,0-2.51-.55A29.35,29.35,0,0,1,.33,34.81c0-.24-.08-.45-.33-.55V27.63a27.71,27.71,0,0,0,.35-3.42,7.33,7.33,0,0,1,1-2.77A3,3,0,0,1,6,20.56a14.22,14.22,0,0,1,1.67,1.53c4.64,4.65,9.23,9.35,14,13.91a10.83,10.83,0,0,0,10.11,3c8.6-1.71,9.21-11.93,5.53-16.34A138.9,138.9,0,0,0,25.5,10.68c-1.05-1-2.14-2-3.14-3-.48-.5-1-1-.91-1.8.43-.84,1.25-.78,2-.78,14,0,26.68,9.08,29.17,23.08A27.87,27.87,0,0,1,51.27,43.1a4.43,4.43,0,0,0,1.35,5.52c2.78,2.55,5.37,5.3,8,8a4.74,4.74,0,0,1,1.66,2.58,2.22,2.22,0,0,1-.79,1.66c-2.46,2.65-5.35,4.92-7.27,8.06A.83.83,0,0,1,53.65,69.19Z"/><path class="cls-2" d="M178.6,151.12c-.71.44,0,1.37-.65,1.83-.73-.32-.85-1.06-1.14-1.68-2.65-5.74-5.88-11.09-10.59-15.41a27.14,27.14,0,0,0-22.09-7.35,56.94,56.94,0,0,0-8.86,1.86,4,4,0,0,1-4.39-1.27c-6.66-7.45-13.79-14.45-20.52-21.83-2.51-2.75-5.15-5.37-7.72-8-5.38-5.62-10.7-11.3-16.11-16.9a4.06,4.06,0,0,1-1-1.38c-.18-.49,0-.78.52-.84a4.67,4.67,0,0,1,1.88.86,26.91,26.91,0,0,0,8.75,3.35,13.8,13.8,0,0,0,7.86-.74c1.9-.79,2.38-.38,2,1.6a10.34,10.34,0,0,0,1.27,7.72,9.09,9.09,0,0,0,10.77,3.33,3.46,3.46,0,0,1,1.84-.41c.93.83,0,1.38-.39,1.84-2.51,2.67-2.71,5.72-1.66,9,1.53,2.85,3.78,4.52,7.14,4.48.84,0,1.74-.19,2.45.49,2.73,2.76,5.48,5.51,8.16,8.31.73.76,1.33.37,2,.11,10.5-3.88,20.34-2.64,29.24,4.15A27.72,27.72,0,0,1,178.28,143a3.47,3.47,0,0,0,.32.78Z"/><path class="cls-3" d="M64.73,154c2.55,3.91,2.3,6.36-1,9.64-3.73,3.74-7.49,7.44-11.19,11.2a13.42,13.42,0,0,1-4.77,3.51H45.35A12,12,0,0,1,40.64,175c-2.64-2.75-5.34-5.43-8-8.15.56-.69,1.29-.38,1.94-.29a6.1,6.1,0,0,0,5.37-1.91c4.3-4.31,8.63-8.61,12.92-12.94a5.72,5.72,0,0,0,1.77-5.86c-.15-.54-.32-1.16.37-1.53.72-.11,1.13.35,1.52.83,2.12,2.52,4.61,4.68,6.88,7.06A4.3,4.3,0,0,1,64.73,154Z"/><path class="cls-4" d="M56.21,145.54l-1.13-1a6.82,6.82,0,0,1-2.82-2q-12.19-12.18-24.37-24.38c-.54-.55-1.35-1-1.11-2,5-5.11,10-10.17,15-15.32a44,44,0,0,0,6.94-9.54,22.43,22.43,0,0,0,2.94-12.17,20.13,20.13,0,0,1,2-10c1.47-3.27,4.31-5.38,6.68-7.9.59-.63,1.19-1.25,1.79-1.88a1.91,1.91,0,0,1,.72-1.32c1.52-1.56,3.07-3.09,4.62-4.62a2,2,0,0,1,1.31-.75l4.36-4.24c2.49-2.43,5.47-2.44,8,0l2.25,2.18a4.14,4.14,0,0,1,1.82,1.29c2.51,2.5,5,5,7.52,7.5,1.55,1.54,3,3.17,4.7,4.57a85.8,85.8,0,0,1,7.48,7.29c1.07,1.1.91,2-.41,2.88A11.13,11.13,0,0,1,98.76,76c-6.21.4-11.46-1.92-16.21-5.68a42,42,0,0,1-4.26-3.86c-.89-.93-1.67-.76-2.49.13-1.44,1.56-1.92,4.71-.73,6.29,4,5.34,3.1,10.78.4,16.23a18.87,18.87,0,0,1-3.6,5.1A3.8,3.8,0,0,0,71,95.32,2.15,2.15,0,0,0,71.4,98a2,2,0,0,0,2.84-.2,18.51,18.51,0,0,0,2.26-2.42,4.28,4.28,0,0,1,1.76-1.64c.86,0,1.32.67,1.84,1.19,7.73,7.69,15.42,15.43,23.15,23.13.39.38,1,.71.71,1.44-4.48,2.93-9.22,4.89-14.74,3.94a17,17,0,0,1-1.89-.33c-4.62-1.3-8.25.36-11.47,3.63-5.74,5.84-11.56,11.61-17.38,17.39C57.86,144.79,57.34,145.7,56.21,145.54Z"/><path class="cls-5" d="M78.45,93.9a48.38,48.38,0,0,1-3.62,4.21c-1.26,1.17-3,1.39-4,.42a3.08,3.08,0,0,1,.09-4.12,20.92,20.92,0,0,0,4.19-5.73c2.17-4.34,3.1-8.84.83-13.49a7.3,7.3,0,0,0-.87-1.29,6.16,6.16,0,0,1,.65-8.1c1-1,1.79-1.06,2.77,0a36.83,36.83,0,0,0,7.15,6c4.72,3,9.79,4.4,15.38,3.28a2,2,0,0,0,.35-.06c4.28-1.18,4.54-2.05,1.48-5.08C100.9,68,98.92,66.17,97,64.27c2-2.49,4.45-4.55,6.65-6.86,1-1,2-2.06,3.09-3.08a3.11,3.11,0,0,1,2.09-1.12,8.59,8.59,0,0,1,7-1.49,2.41,2.41,0,0,1,1.4,1.67c1,3.34.83,6.54-1.27,9.46-2.26,3.13-5.25,5.57-7.89,8.34-1.64,1.71-1.67,1.71-.08,3.51a7.4,7.4,0,0,1,1,1.38c1.26,2.31,1.31,1.78,2.86.24s3.17-3.24,4.82-4.78c1-.94,2-2,3.5-2.08A6.42,6.42,0,0,1,124.13,68c3-.31,3.46,0,4.07,2.86a10,10,0,0,1-2.67,9.33c-3.38,3.6-6.89,7.08-10.48,10.48a8.57,8.57,0,0,1-7.64,2.54c-2.19-3-2.12-6.21-1-9.73a32.25,32.25,0,0,1-3.66,1.28c-5.63,1.22-10.58-.7-15.33-3.47-.54-.32-1.07-.68-1.6-1-1,0-1.63-.79-2.56-1.37A24,24,0,0,1,80,92.12C79.6,92.81,79.32,93.62,78.45,93.9Z"/><path class="cls-2" d="M68.77,52.72c-2.09,2.36-4.35,4.55-6.65,6.69A9.34,9.34,0,0,0,60.22,57c-2.64-2.61-5.14-5.38-7.92-7.83-2.13-1.87-2.57-3.6-1.57-6.35a26.4,26.4,0,0,0,.52-17.73C47.79,14.78,40.38,8.8,30,6.38a24,24,0,0,0-6.71-.72c-.56,0-1.17-.14-1.63.36-2.05-2.16-1.71-3.82,1-4.91A17.56,17.56,0,0,1,28.53,0L33.2,0c12.64.63,24,10.63,26.49,23.05a30,30,0,0,1-1.54,17.32,1.75,1.75,0,0,0,.54,2.24C62.07,46,65.41,49.35,68.77,52.72Z"/><path class="cls-6" d="M107.41,93.25c1.17-.74,2.58-.31,3.83-.85a11.11,11.11,0,0,0,3.65-2.27c3.36-3.37,6.76-6.7,10.08-10.1a9.89,9.89,0,0,0,2.62-9.57A2.78,2.78,0,0,0,124.13,68C128.79,67,134,70.47,135,75.31a10.32,10.32,0,0,1-1.08,7.17c-.16.31-.68.53-.36,1,.16.65-.37.93-.71,1.27-3.07,3-6.1,6.15-9.2,9.16A5.82,5.82,0,0,1,120.37,96C115.58,98.62,110.2,97.48,107.41,93.25Z"/><path class="cls-6" d="M127.93,111.64c-3.37.4-6.5,0-8.88-2.77a4.22,4.22,0,0,1-1.2-2.07c.52-.61,1.26-.52,1.93-.52A7.08,7.08,0,0,0,125,104c4.12-4.16,8.23-8.31,12.41-12.4,2.44-2.39,3.59-5.06,2.47-8.45a1.23,1.23,0,0,1,0-1,7.7,7.7,0,0,1,6.53,5.47,7.93,7.93,0,0,1-1.7,8.56c-4.41,4.55-8.94,9-13.42,13.46A11.77,11.77,0,0,1,127.93,111.64Z"/><path class="cls-5" d="M139.91,82.13a7.17,7.17,0,0,1-1.06,8.78c-4.68,4.76-9.41,9.46-14.15,14.16-1.92,1.9-4.39,1.85-6.85,1.73a8.42,8.42,0,0,1,1.45-9.26c.41-.45,1.19-.7,1.07-1.54,4-3.12,7.35-7,11-10.53.7-.67,1.44-1.32,2.16-2A8.25,8.25,0,0,1,139.91,82.13Z"/><path class="cls-5" d="M92.44,59.73c-3.14-2.91-6.21-5.89-9.06-9.09,3.29-3.26,6.59-6.5,9.86-9.77a9.67,9.67,0,0,1,8.29-3.06c1.26.25,1.77,1.21,2.18,2.26a9.33,9.33,0,0,1-1.25,9.58A77,77,0,0,1,92.44,59.73Z"/><path class="cls-6" d="M120.21,69.46c-3.5,2.35-6.17,5.58-9.15,8.48-.82.81-1.2,1-1.73-.29a9.33,9.33,0,0,0-2.44-3.34c-1-.88-1.16-1.66,0-2.8a86.74,86.74,0,0,0,8.34-8.59,9.76,9.76,0,0,0,.57-11.2c4.61.25,8.66,5.27,8.19,10.07a10.52,10.52,0,0,1-3,6.47A9.27,9.27,0,0,0,120.21,69.46Z"/><path class="cls-6" d="M92.44,59.73c0-.79.67-1.18,1.15-1.66,2.6-2.63,5.25-5.2,7.83-7.86a9.2,9.2,0,0,0,.11-12.4c6.51.37,10.59,7.69,7.75,13.81-.23.48-.89.89-.48,1.59-3.6,3.08-6.76,6.63-10.17,9.91-.49.47-.88,1.11-1.66,1.15A47.35,47.35,0,0,1,92.44,59.73Z"/><path class="cls-7" d="M26.78,116.17c1.79,1.82,3.55,3.67,5.36,5.47q10.23,10.24,20.47,20.45c.82.82,1.65,1.62,2.47,2.43-.33.3-.16.62,0,.95,1,2.62.08,4.75-1.76,6.6-3.75,3.78-7.66,7.41-11.25,11.34-2.63,2.88-5.44,4.57-9.42,3.45-9.5-9.47-19-18.91-28.48-28.43a5.86,5.86,0,0,1,.14-8.56c4.21-4.26,8.46-8.47,12.7-12.69C20.4,113.75,22.82,113.51,26.78,116.17Z"/><path class="cls-1" d="M78.45,93.9c1.89-3.39,3.56-6.86,4-10.79a20.81,20.81,0,0,0-.12-5.65l3.39,2.85c-.24.36.07.53.26.73q3.41,3.6,6.83,7.18c5.91,6.16,11.88,12.24,17.71,18.46,4.41,4.7,8.81,9.39,13.31,14,2.59,2.65,5,5.44,7.52,8.19a3.14,3.14,0,0,0,3.56,1c4.34-1.23,8.73-2.33,13.31-2.13a27.59,27.59,0,0,1,18.2,7.59A44.56,44.56,0,0,1,178,153c-.29,1.84-.51,4-2.45,4.67s-3.21-1.14-4.46-2.39c-4.6-4.59-9.13-9.26-13.79-13.79a11.61,11.61,0,0,0-14.72-1.08c-4.74,3.3-5.29,11.56-.86,16.27s9,9.05,13.55,13.55a14.22,14.22,0,0,1,2.46,2.68c.93,1.59.66,2.76-1,3.62A17.43,17.43,0,0,1,150,178h-4.23a29.33,29.33,0,0,1-27.46-30.41,27,27,0,0,1,2.25-10.11,1.46,1.46,0,0,0-.36-1.94c-2.72-2.62-5.38-5.31-8.06-8a4.69,4.69,0,0,1-1.94-1.41c-1.75-1.76-3.52-3.51-5.26-5.28-.44-.44-1-.84-1-1.55Q91.2,106.65,78.45,93.9Z"/><path class="cls-5" d="M103.93,119.38c2.85,2.64,5.62,5.36,8.23,8.24-4,2.39-8.17,4.37-13,3.95a41,41,0,0,1-5.32-.75c-3.36-.74-6,.53-8.38,2.71-7.1,6.61-13.81,13.63-20.71,20.45a93,93,0,0,1-8.52-8.44l19.15-19a21.93,21.93,0,0,1,3.9-3.16,9.38,9.38,0,0,1,7.73-.81c5.6,1.52,10.63.08,15.49-2.6A12.12,12.12,0,0,1,103.93,119.38Z"/></g></g></svg>